<?xml version="1.0" encoding="UTF-8" standalone="no"?>
<!-- Created with Inkscape (http://www.inkscape.org/) -->

<svg
   xmlns:dc="http://purl.org/dc/elements/1.1/"
   xmlns:cc="http://creativecommons.org/ns#"
   xmlns:rdf="http://www.w3.org/1999/02/22-rdf-syntax-ns#"
   xmlns:svg="http://www.w3.org/2000/svg"
   xmlns="http://www.w3.org/2000/svg"
   xmlns:xlink="http://www.w3.org/1999/xlink"
   xmlns:sodipodi="http://sodipodi.sourceforge.net/DTD/sodipodi-0.dtd"
   xmlns:inkscape="http://www.inkscape.org/namespaces/inkscape"
   width="32px"
   height="32px"
   viewBox="0 0 32 32"
   version="1.1"
   id="SVGRoot"
   sodipodi:docname="ICO.svg"
   inkscape:version="0.92.5 (2060ec1f9f, 2020-04-08)"
   inkscape:export-filename="/home/bloodchild/Documents/GitHub/SAE_S1.06-A1/Website/Website32.ico.png"
   inkscape:export-xdpi="96"
   inkscape:export-ydpi="96">
  <defs
     id="defs10">
    <linearGradient
       inkscape:collect="always"
       id="linearGradient70">
      <stop
         style="stop-color:#b3b3b3;stop-opacity:1;"
         offset="0"
         id="stop66" />
      <stop
         style="stop-color:#241c1c;stop-opacity:0"
         offset="1"
         id="stop68" />
    </linearGradient>
    <radialGradient
       inkscape:collect="always"
       xlink:href="#linearGradient70"
       id="radialGradient891"
       cx="16"
       cy="16"
       fx="16"
       fy="16"
       r="15.490234"
       gradientUnits="userSpaceOnUse"
       gradientTransform="matrix(1.5250235,-0.00222471,0.00364799,2.5006524,-8.4587431,-23.974843)" />
  </defs>
  <sodipodi:namedview
     id="base"
     pagecolor="#ffffff"
     bordercolor="#666666"
     borderopacity="1.0"
     inkscape:pageopacity="0.0"
     inkscape:pageshadow="2"
     inkscape:zoom="22.63"
     inkscape:cx="8.300002"
     inkscape:cy="16.024295"
     inkscape:document-units="px"
     inkscape:current-layer="layer1"
     showgrid="false"
     inkscape:window-width="1920"
     inkscape:window-height="1020"
     inkscape:window-x="0"
     inkscape:window-y="0"
     inkscape:window-maximized="1"
     inkscape:grid-bbox="true" />
  <metadata
     id="metadata13">
    <rdf:RDF>
      <cc:Work
         rdf:about="">
        <dc:format>image/svg+xml</dc:format>
        <dc:type
           rdf:resource="http://purl.org/dc/dcmitype/StillImage" />
      </cc:Work>
    </rdf:RDF>
  </metadata>
  <g
     inkscape:label="Calque 1"
     inkscape:groupmode="layer"
     id="layer1">
    <ellipse
       style="fill:#ffffff;stroke-width:1.10107195"
       id="path25"
       cx="16"
       cy="16"
       rx="15.841026"
       ry="15.887805" />
    <ellipse
       ry="15.532359"
       rx="15.486627"
       cy="16"
       cx="16"
       id="ellipse27"
       style="fill:#333333;stroke-width:1.07643843" />
    <path
       style="fill:url(#radialGradient891);fill-opacity:1"
       d="M 14.791016 0.50976562 L 11.070312 4.2441406 L 6.0898438 4.2460938 L 8.578125 6.7480469 L 6.8515625 8.4824219 L 4.2949219 5.9121094 L 4.296875 11.046875 L 0.59570312 14.761719 L 4.296875 14.765625 L 4.2988281 17.212891 L 0.50976562 17.208984 L 4.2988281 20.984375 L 4.3007812 26.027344 L 6.8339844 23.507812 L 8.5683594 25.236328 L 5.96875 27.822266 L 11.164062 27.820312 L 14.761719 31.404297 L 14.765625 27.820312 L 17.212891 27.818359 L 17.208984 31.490234 L 20.867188 27.818359 L 26.083984 27.816406 L 23.478516 25.197266 L 25.205078 23.460938 L 27.878906 26.148438 L 27.876953 20.779297 L 31.404297 17.238281 L 27.876953 17.234375 L 27.875 14.787109 L 31.490234 14.791016 L 27.875 11.189453 L 27.873047 6.0332031 L 25.283203 8.609375 L 23.548828 6.8808594 L 26.205078 4.2402344 L 20.898438 4.2421875 L 17.238281 0.59570312 L 17.234375 4.2421875 L 14.787109 4.2441406 L 14.791016 0.50976562 z M 15.748047 4.6953125 L 18.216797 10.394531 L 23.929688 7.9199219 L 21.707031 13.53125 L 27.304688 15.748047 L 21.605469 18.216797 L 24.080078 23.929688 L 18.46875 21.707031 L 16.251953 27.304688 L 13.783203 21.605469 L 8.0703125 24.080078 L 10.292969 18.46875 L 4.6953125 16.251953 L 10.394531 13.783203 L 7.9199219 8.0703125 L 13.53125 10.292969 L 15.748047 4.6953125 z M 15.851562 9.3359375 L 14.544922 12.636719 L 11.236328 11.326172 L 12.695312 14.693359 L 9.3359375 16.148438 L 12.636719 17.455078 L 11.326172 20.763672 L 14.693359 19.304688 L 16.148438 22.664062 L 17.455078 19.363281 L 20.763672 20.673828 L 19.304688 17.306641 L 22.664062 15.851562 L 19.363281 14.544922 L 20.673828 11.236328 L 17.306641 12.695312 L 15.851562 9.3359375 z "
       id="path33" />
  </g>
</svg>
